<?xml version="1.0" standalone="no"?>
<!DOCTYPE svg PUBLIC "-//W3C//DTD SVG 1.1//EN" "http://www.w3.org/Graphics/SVG/1.1/DTD/svg11.dtd" >
<svg xmlns="http://www.w3.org/2000/svg">
<metadata>Generated by IcoMoon</metadata>
<defs>
<font id="icon" horiz-adv-x="1024">
<font-face units-per-em="1024" ascent="960" descent="-64" />
<missing-glyph horiz-adv-x="1024" />
<glyph unicode="&#x20;" horiz-adv-x="512" d="" />
<glyph unicode="&#xe900;" glyph-name="add" d="M576 512v384h-128v-384h-384v-128h384v-384h128v384h384v128h-384z" />
<glyph unicode="&#xe901;" glyph-name="add_square" d="M576 512v256h-128v-256h-256v-128h256v-256h128v256h256v128h-256zM192 896h640c70.656 0 128-57.344 128-128v-640c0-70.656-57.344-128-128-128h-640c-70.656 0-128 57.344-128 128v640c0 70.656 57.344 128 128 128v0z" />
<glyph unicode="&#xe902;" glyph-name="alert" d="M512-64c-282.752 0-512 229.248-512 512s229.248 512 512 512c282.752 0 512-229.248 512-512s-229.248-512-512-512zM448 768v-384h128v384h-128zM448 256v-128h128v128h-128z" />
<glyph unicode="&#xe903;" glyph-name="alert_trigle" d="M512 896l512-896h-1024l512 896zM448 576v-256h128v256h-128zM448 256v-128h128v128h-128z" />
<glyph unicode="&#xe904;" glyph-name="anniversary" d="M192 896h640c70.656 0 128-57.344 128-128v-640c0-70.656-57.344-128-128-128h-640c-70.656 0-128 57.344-128 128v640c0 70.656 57.344 128 128 128v0zM448 704v-512h128v512h-128zM320 576v-64h128v192l-128-128z" />
<glyph unicode="&#xe905;" glyph-name="archive" d="M256 512h192v384h128.192v-384h191.808l-256-320-256 320zM320 768v-128h-128v-576h640v576h-128v128l256 0.192v-832.192h-896v832h256z" />
<glyph unicode="&#xe906;" glyph-name="arrow_left" d="M512 704l-192-192h640v-128h-640l192-192-96-96-352 352 352 352.128z" />
<glyph unicode="&#xe907;" glyph-name="arrow_right" d="M512 704l192-192h-640v-128h640l-192-192 96-96 352 352-352 352.128z" />
<glyph unicode="&#xe908;" glyph-name="back_to_top" d="M767.872 287.936l-192 192v-543.936h-128v543.936l-192-192-96 96 352 352 352.192-352-96.192-96zM128 960h768v-128h-768v128z" />
<glyph unicode="&#xe909;" glyph-name="backward" d="M640 896l90.24-90.24-357.12-357.696 357.12-357.824-90.24-90.24-448 448z" />
<glyph unicode="&#xe90a;" glyph-name="benefit" d="M896 673.472v-737.472h-768v737.472c93.824-59.776 231.104-97.472 384-97.472s290.176 37.696 384 97.472zM512 640c-163.328 0-305.728 39.744-384 104.96 0 82.368 0 215.040 0 215.040h768.192c0 0 0-159.488 0-215.36-78.336-65.088-221.056-104.64-384.192-104.64z" />
<glyph unicode="&#xe90b;" glyph-name="birthday" d="M128 512h768v-384h-768v384zM448 640h128v-128h-128v128zM512 704c-35.328 0-64 28.672-64 64 0 23.552 21.312 66.24 64 128 42.624-61.76 64-104.448 64-128 0-35.328-28.608-64-64-64zM192 640h128v-128h-128v128zM256 704c-35.328 0-64 28.672-64 64 0 23.552 21.312 66.24 64 128 42.688-61.76 64-104.448 64-128 0-35.328-28.672-64-64-64zM704 640h128v-128h-128v128zM768 704c-35.392 0-64 28.672-64 64 0 23.552 21.376 66.24 64 128 42.624-61.76 64-104.448 64-128 0-35.328-28.608-64-64-64zM64 128h896v-128h-896v128z" />
<glyph unicode="&#xe90c;" glyph-name="boring_file" d="M128 960h480.384l287.616-261.44v-762.56h-768v1024zM256 640v-128h512v128h-512zM256 384v-128h384v128h-384z" />
<glyph unicode="&#xe90d;" glyph-name="calendar" d="M704 768h256v-768h-896v768h256v128h128v-128h128v128h128v-128zM704 640v-128h-128v128h-128v-128h-128v128h-128v-512h448l192 192v320h-128z" />
<glyph unicode="&#xe90e;" glyph-name="camera" d="M0 704h256l128 128h255.872l128.128-128h256v-640h-1024v640zM512 192c105.984 0 192 86.016 192 192 0 106.048-86.016 192-192 192-106.048 0-192-85.952-192-192 0-105.984 85.952-192 192-192z" />
<glyph unicode="&#xe90f;" glyph-name="captcha" d="M512-64v128c212.032 0 384 171.968 384 384s-171.968 384-384 384-384-171.968-384-384h-128c0 282.752 229.248 512 512 512s512-229.248 512-512c0-282.752-229.248-512-512-512zM0 448h320l-320-320v320z" />
<glyph unicode="&#xe910;" glyph-name="cashout" d="M832 320h192l-256-256-256 256h192v256h128v-256zM0 320h448l192-192h-640v192zM0 576h640v-192h-640v192zM0 832h640v-192h-640v192z" />
<glyph unicode="&#xe911;" glyph-name="check" d="M288 416l96 96 128-128.192 384 384.192 96-96-480-480-224 224zM64 768h576v-128h-448l0.192-512h575.808v192h128v-320h-832v768z" />
<glyph unicode="&#xe912;" glyph-name="check_list" d="M128 960h768v-1024h-768v1024zM320 832v-128h384v128h-384zM256 576v-128h128v128h-128zM448 576v-128h320v128h-320zM256 384v-128h128v128h-128zM448 384v-128h320v128h-320zM256 192v-128h128v128h-128zM448 192v-128h320v128h-320z" />
<glyph unicode="&#xe913;" glyph-name="close" d="M512 538.496l-316.8 316.8-90.496-90.496 316.8-316.8-316.8-316.736 90.496-90.496 316.8 316.736 316.736-316.736 90.496 90.496-316.736 316.736 316.736 316.8-90.496 90.496-316.736-316.8z" />
<glyph unicode="&#xe914;" glyph-name="companies" d="M320 896h640v-896h-640v896zM64 576h256v-576h-256v576zM448 512v-128h128v128h-128zM704 512v-128h128v128h-128zM448 768v-128h128v128h-128zM704 768v-128h128v128h-128zM192 448v-128h128v128h-128zM576 192v-192h128v192h-128zM192 192v-192h128v192h-128z" />
<glyph unicode="&#xe915;" glyph-name="company" d="M128 896h768v-960h-768v960zM256 768v-128h192v128h-192zM576 768v-128h192v128h-192zM256 512v-128h192v128h-192zM576 512v-128h192v128h-192zM384 192v-256h256v256h-256z" />
<glyph unicode="&#xe916;" glyph-name="complete" d="M512-64c-282.752 0-512 229.248-512 512s229.248 512 512 512c282.752 0 512-229.248 512-512s-229.248-512-512-512zM224 416l224-224 352 352-96 96-256-256-128 128-96-96z" />
<glyph unicode="&#xe917;" glyph-name="computer" d="M64 896h896v-704h-896v704zM192 768v-448h640v448h-640zM256 128h512v-128h-512v128zM384 192h256v-64h-256v64z" />
<glyph unicode="&#xe918;" glyph-name="config" d="M576 384h384v128h-384v64h-128v-64h-384v-128h384v-64h128v64zM832 704h128v128h-128v64h-128v-64h-640v-128h640v-64h128v64zM320 64h640v128h-640v64h-128v-64h-128v-128h128v-64h128v64z" />
<glyph unicode="&#xe919;" glyph-name="customer_service" d="M128.952 512c0.119 256 127.802 384 383.048 384s383.046-128 383.399-384h127.649l0.724-320h-125.516l-0.893-192h-319.43l2.387 128h187.161l2.403 384c1.073 170.667-84.306 256-256.137 256s-257.095-85.333-255.79-256l-1.879-320h-252.795l1.186 320h124.484z" />
<glyph unicode="&#xe91a;" glyph-name="left_triangle" d="M256 448l384 256v-512z" />
<glyph unicode="&#xe91b;" glyph-name="detail" d="M448 768h128v-128h-128v128zM448 512h128v-128h-128v128zM448 256h128v-128h-128v128z" />
<glyph unicode="&#xe91c;" glyph-name="different" d="M0 320h320l128-128h-448v128zM384 704h384v-128h-256l-128 128zM768 832l256-192-256-192v384zM768 448l256-192-256-192v384zM0 704h256l384-384.256 128 0.256v-128h-192l-384 384h-192v128z" />
<glyph unicode="&#xe91d;" glyph-name="eye" d="M0 448c0 0 128 384 512 384s512-384 512-384-128.128-384-512-384c-383.936 0-512 384-512 384zM512 192c141.376 0 256 114.624 256 256s-114.624 256-256 256-256-114.624-256-256 114.624-256 256-256zM512 320c-70.656 0-128 57.344-128 128s57.344 128 128 128 128-57.344 128-128-57.344-128-128-128z" />
<glyph unicode="&#xe91e;" glyph-name="divide" d="M512 704c-53.056 0-96 42.944-96 96s42.944 96 96 96c52.992 0 96-42.944 96-96s-43.008-96-96-96zM512 0c-53.056 0-96 43.008-96 96s42.944 96 96 96c52.992 0 96-43.008 96-96s-43.008-96-96-96zM960 384h-896v128h896v-128z" />
<glyph unicode="&#xe91f;" glyph-name="done" d="M64 416l96 96 256-256.192 512 512.192 96-96-608-608z" />
<glyph unicode="&#xe920;" glyph-name="done_batch" d="M192 480l96 96 96-96-96-96-96 96zM448 224l480 480 96-96-480-480-96 96zM0 416l96 96 192-192.192 448 448.192 96-96-544-544-288 288z" />
<glyph unicode="&#xe921;" glyph-name="download" d="M576 576v320h-128v-320h-256l320-384 320 384h-256zM832 0h-640v128h640v-128z" />
<glyph unicode="&#xe922;" glyph-name="downward" d="M64 576l90.24 90.24 357.696-357.12 357.824 357.12 90.24-90.24-448-448z" />
<glyph unicode="&#xe923;" glyph-name="drawer" d="M64 384h384v-384h-384v384zM576 384h384v-384h-384v384zM960 896v-384h-384v384h384zM64 896h384v-384h-384v384z" />
<glyph unicode="&#xe924;" glyph-name="duplicate" d="M704 768h-512v-512h-128v640h640v-128zM320 640h640v-640h-640v640z" />
<glyph unicode="&#xe925;" glyph-name="edit" d="M544 704l192-192-448-448h-192v192l448 448zM672 831.872c35.392 35.264 92.352 35.584 127.936 0.064l64.128-64c35.328-35.2 35.584-92.224 0.064-127.872l-63.872-64.064-192.256 192 64 63.872z" />
<glyph unicode="&#xe926;" glyph-name="edit_list" d="M0 832h832v-128h-832v128zM0 512h512v-128h-512v128zM0 192h320v-128h-320v128zM480 160l448 448 96-96.256-448-447.744-96 96z" />
<glyph unicode="&#xe927;" glyph-name="edit_simple" d="M512 896v-128h-320v-640h640v320h128v-448h-896v896h448zM384 384l480 480 96-96-480-480-96 96z" />
<glyph unicode="&#xe928;" glyph-name="error" d="M512-64c-282.752 0-512 229.248-512 512s229.248 512 512 512c282.752 0 512-229.248 512-512s-229.248-512-512-512zM192 512v-128h640v128h-640z" />
<glyph unicode="&#xe929;" glyph-name="file_create" d="M128 960h480.384l287.616-261.44v-378.56h-768v640zM128 320h128v-384h-128v384zM256 192h128v-128h-128v128zM384 320h128v-128h-128v128zM384 64h128v-128h-128v128zM640 320h128v-128h-128v128zM512 192h128v-128h-128v128zM768 64h128v-128h-128v128zM256 320h128v-128h-128v128z" />
<glyph unicode="&#xe92a;" glyph-name="file_download" d="M576 512v256h-128v-256h-192l256-256 256 256h-192zM128 960h480.384l287.616-261.44v-762.56h-768v1024zM768 64v128h-512v-128h512z" />
<glyph unicode="&#xe92b;" glyph-name="filter" d="M448 402.24l-384 493.76h896l-384-493.76v-402.24h-128v402.24z" />
<glyph unicode="&#xe92c;" glyph-name="flight" d="M256 512h192l-128 448h64l320-448h256v-128h-251.072l-324.928-448h-64l128 448h-192l-127.744-128.256h-64.256l64 192.256-64 192h64.256z" />
<glyph unicode="&#xe92d;" glyph-name="fold" d="M576 256v-256h-128v256h-256l320 384 320-384h-256zM832 768h-640v128h640v-128z" />
<glyph unicode="&#xe92e;" glyph-name="angle_right" d="M410.24 0l-90.24 90.24 357.12 357.696-357.12 357.824 90.24 90.24 448-448z" />
<glyph unicode="&#xe92f;" glyph-name="hide" d="M835.008 716.992c137.024-113.088 188.992-268.992 188.992-268.992s-128.128-384-512-384c-99.84 0-182.336 25.92-249.792 64.384l-98.816-101.632-98.752 100.992 735.36 736.256 97.024-83.328-62.016-63.68zM367.552 236.608c41.088-28.096 90.88-44.608 144.448-44.608 141.376 0 256 114.624 256 256 0 56.064-17.984 107.968-48.64 150.144l-91.968-94.528c8.064-16.832 12.608-35.712 12.608-55.616 0-70.656-57.344-128-128-128-18.688 0-36.416 3.968-52.416 11.2l-92.032-94.592zM627.648 819.52l-115.392-115.52c-0.128 0-0.192 0-0.256 0-141.376 0-256-114.624-256-256 0-0.192 0-0.384 0-0.512l-164.864-165.056c-64.704 86.464-91.136 165.568-91.136 165.568s128 384 512 384c41.472 0 80-4.48 115.648-12.48z" />
<glyph unicode="&#xe930;" glyph-name="history" d="M512 896h512v-896h-512v896zM256 768h128v-640h-128v640zM0 640h128v-384h-128v384z" />
<glyph unicode="&#xe931;" glyph-name="housing" d="M64 576l448 320 448-320v-640h-896v640zM512 256c70.656 0 128 57.344 128 128s-57.344 128-128 128-128-57.344-128-128 57.344-128 128-128zM320 32v-96h384v96c0 53.376-42.944 96-95.872 96h-192.192c-53.376 0-95.936-43.008-95.936-96z" />
<glyph unicode="&#xe932;" glyph-name="housing_fund" d="M64 576l448 320 448-320v-640h-896v640zM320 448v-128h384v128h-384zM320 192v-128h384v128h-384z" />
<glyph unicode="&#xe933;" glyph-name="indicater" d="M0 832h640l384-384-384-384h-640v768zM320 704v-256h128v256h-128zM320 320v-128h128v128h-128z" />
<glyph unicode="&#xe934;" glyph-name="info" d="M512 960c-282.752 0-512-229.248-512-512s229.248-512 512-512c282.752 0 512 229.248 512 512s-229.248 512-512 512zM448 128v384h128v-384h-128zM448 640v128h128v-128h-128z" />
<glyph unicode="&#xe935;" glyph-name="insurance" d="M448 346.496v101.504h-448l512 512 512-512h-448v-320c0-105.984-85.952-192-192-192s-192 86.016-192 192h128c0-35.392 28.672-64 64-64s64 28.608 64 64v218.496z" />
<glyph unicode="&#xe936;" glyph-name="layoff" d="M512 416l96 96 162.368-163.2 157.632 163.2 96-95.808-160-160.192 160-160-96-96-160 160-160-160-96 96 160 160-160 160zM256 384c-141.376 0-256 114.624-256 256s114.624 256 256 256 256-114.624 256-256-114.624-256-256-256zM0 129.472c0 69.888 56.768 126.528 126.592 126.528h385.408l-256-256h-256v129.472z" />
<glyph unicode="&#xe937;" glyph-name="list" d="M0 192h128v-128h-128v128zM256 192h768v-128h-768v128zM0 512h128v-128h-128v128zM256 512h768v-128h-768v128zM0 832h128v-128h-128v128zM256 832h768v-128h-768v128z" />
<glyph unicode="&#xe938;" glyph-name="delete" d="M192 576h640v-512c0-70.656-56.768-128-128-128h-384c-70.656 0-128 56.832-128 128v512zM128 768h768v-128h-768v128zM384 896h256v-128h-256v128z" />
<glyph unicode="&#xe939;" glyph-name="lock" d="M832 512h128v-576h-896v576h128c0 0.064 0 0.064 0 0.128v127.744c0 176.768 143.616 320.128 320 320.128 176.768 0 320-142.656 320-320.128v-127.744c0-0.064 0-0.064 0-0.128zM704 512v128.192c0 105.536-86.016 191.808-192 191.808-105.792 0-192-85.888-192-191.808v-128.192h384z" />
<glyph unicode="&#xe93a;" glyph-name="mail" d="M0 832l512-512 512 512v-768h-1024v768zM512 448l-384 384h768l-384-384z" />
<glyph unicode="&#xe93b;" glyph-name="mail_include" d="M448 512l-320 320h640l-320-320zM0 832l448-448 448 448v-768h-896v768zM256 320v-256h640v256h-640zM384 192h128v-128h-128v128zM640 192h128v-128h-128v128zM896 192h128v-128h-128v128z" />
<glyph unicode="&#xe93c;" glyph-name="mail_read" d="M64 512l448 384 448-384v-512h-896v512zM512 192l320 320-320 256-320-256 320-320z" />
<glyph unicode="&#xe93d;" glyph-name="manifesto" d="M128 960h768v-1024h-768v1024zM256 832v-128h512v128h-512zM256 576v-128h320l128 128h-448zM320 224l192-192 320 320-96 96-224-224-96 96-96-96z" />
<glyph unicode="&#xe93e;" glyph-name="medical" d="M384 576h-320v-256h320v-320h256v320h320v256h-320v320h-256v-320z" />
<glyph unicode="&#xe93f;" glyph-name="message" d="M64 896h896v-704h-596.928l-299.072-192v896zM192 576v-128h128v128h-128zM448 576v-128h128v128h-128zM704 576v-128h128v128h-128z" />
<glyph unicode="&#xe940;" glyph-name="minus" d="M192 512h640v-128h-640z" />
<glyph unicode="&#xe941;" glyph-name="minus_square" d="M192 896h640c70.656 0 128-57.344 128-128v-640c0-70.656-57.344-128-128-128h-640c-70.656 0-128 57.344-128 128v640c0 70.656 57.344 128 128 128v0zM768 384v128h-512v-128h512z" />
<glyph unicode="&#xe942;" glyph-name="more" d="M512-64c-282.752 0-512 229.248-512 512s229.248 512 512 512c282.752 0 512-229.248 512-512s-229.248-512-512-512zM192 512v-128h128v128h-128zM448 512v-128h128v128h-128zM704 512v-128h128v128h-128z" />
<glyph unicode="&#xe943;" glyph-name="new_stub" d="M704 768h-128v-128h128v-128h128v128h128v128h-128v128h-128v-128zM448 768h-384v-768h512v512h-128v256z" />
<glyph unicode="&#xe944;" glyph-name="new" d="M64 256l256 160 64-96-256-160-64 96zM640 576l256 160 64-95.808-256-160.192-64 96zM576 960v-320h-128v320h128zM576 256v-320h-128v320h128zM128 736l256-160-64-96-256 160 64 96zM704 416l256-160-64-96-248.384 154.24 56.384 101.76z" />
<glyph unicode="&#xe945;" glyph-name="newpage" d="M384 896v-128h-192v-640h640v192h128v-320h-896v896h320zM384 416l352 352h-160v128h384v-384h-128v160l-352-352-96 96z" />
<glyph unicode="&#xe946;" glyph-name="next" d="M640 448l-384-256v512l384-256zM640 704h128v-512h-128v512z" />
<glyph unicode="&#xe947;" glyph-name="noftification_simple" d="M128 192h768v-128h-768v128zM256 384c0 106.048 85.696 192 192.064 192h127.808c106.112 0 192.128-86.208 192.128-192v-192h-512v192zM128 704h128v-128h-128v128zM768 704h128v-128h-128v128zM448 832h128v-128h-128v128z" />
<glyph unicode="&#xe948;" glyph-name="notification" d="M448 896h128v-128h-128v128zM192 480c0 159.040 129.472 288 288.192 288h63.616c159.168 0 288.192-129.28 288.192-288v-288h-640v288zM128 192h768v-128h-768v128zM448 64h128v-128h-128v128z" />
<glyph unicode="&#xe949;" glyph-name="org_chart" d="M447.936 512l0.064 128-384 0.32v-384.32h384v128l192-192v-192h320v320h-288l-128 128.32 128 127.68h288.32l-0.32 319.872-320 0.128v-192z" />
<glyph unicode="&#xe94a;" glyph-name="out_source" d="M512 512h128v-128h-128v-320h-512v768h512v-320zM512 512v128h-128v-128 192h-256v-512h256v192h-128v128h256zM512 384h-128v-128h128v128zM640 768l384-320-384-320v640z" />
<glyph unicode="&#xe94b;" glyph-name="pause" d="M192 768h192v-640h-192v640zM640 768h192v-640h-192v640z" />
<glyph unicode="&#xe94c;" glyph-name="pay" d="M0 832h1024v-768h-1024v768zM0 640v-128h1024v128h-1024zM128 320v-128h128v128h-128zM384 320v-128h128v128h-128z" />
<glyph unicode="&#xe94d;" glyph-name="payroll" d="M896 384v256h-640v192h768v-448h-128zM0 576h832v-512h-832v512zM192 384v-128h64v128h-64zM320 384v-128h128v128h-128zM512 384v-128h128v128h-128z" />
<glyph unicode="&#xe94e;" glyph-name="people" d="M320 384c-141.376 0-256 114.624-256 256s114.624 256 256 256 256-114.624 256-256-114.624-256-256-256zM832 256c-70.656 0-128 57.344-128 128s57.344 128 128 128 128-57.344 128-128-57.344-128-128-128zM64 128c0 70.656 57.344 128 127.872 128h320.32c70.528 0 127.808-56.832 127.808-128v-128h-576v128zM704 128h256v-128h-256v128z" />
<glyph unicode="&#xe94f;" glyph-name="phone" d="M128 832.384c0 70.464 57.728 127.616 128.512 127.616h510.976c70.976 0 128.512-57.28 128.512-127.616v-768.768c0-70.464-57.728-127.616-128.512-127.616h-510.976c-70.976 0-128.512 57.28-128.512 127.616v768.768zM256 832v-768h512v768h-512zM384 256h256v-128h-256v128z" />
<glyph unicode="&#xe950;" glyph-name="phone_number" d="M128 704l128 128 128-128-64-64c21.312-106.688 64-192 128-256s149.376-106.624 256-128l64 64 128-128-128-128c-170.624 42.624-309.312 117.376-416 224s-181.312 245.312-224 416z" />
<glyph unicode="&#xe951;" glyph-name="pie_chart" d="M448 832v-448h448c0-247.424-200.576-448-448-448s-448 200.576-448 448 200.576 448 448 448zM576 512v448c247.424 0 448-200.576 448-448h-448z" />
<glyph unicode="&#xe952;" glyph-name="poll" d="M768 832h256v-768h-256v768zM384 640h256v-576h-256v576zM0 384h256v-320h-256v320z" />
<glyph unicode="&#xe953;" glyph-name="previous" d="M384 448l384 256v-512l-384 256zM384 192h-128v512h128v-512z" />
<glyph unicode="&#xe954;" glyph-name="priotity" d="M448 672v-736h-128v640h-192l320 384v-288zM704 320v640h-128v-1024l320 384h-192z" />
<glyph unicode="&#xe955;" glyph-name="question_mark" d="M501.76 832c-75.776 0-135.168-21.504-179.2-64.512-45.056-43.008-66.56-102.4-66.56-178.176h116.736c0 43.008 8.192 76.8 25.6 100.352 19.456 28.672 51.2 41.984 96.256 41.984 34.816 0 62.464-9.216 81.92-28.672 18.432-19.456 28.672-46.080 28.672-79.872 0-25.6-9.216-50.176-27.712-72.704l-12.224-14.336c-66.56-59.392-106.496-102.4-119.808-130.048-14.336-27.648-20.48-61.44-20.48-100.352v-14.336h117.76v14.336c0 24.64 5.184 46.144 15.424 66.624 9.152 18.368 22.528 35.84 40.896 51.2 49.216 43.008 78.848 70.656 88.128 80.896 24.576 32.768 37.888 74.752 37.888 125.952 0 62.464-20.48 111.616-61.44 147.456-40.96 36.8-95.296 54.208-161.856 54.208zM483.328 241.152c-22.528 0-40.96-7.104-56.32-21.504-15.36-14.336-22.528-32.768-22.528-55.232 0-22.592 7.168-41.024 22.528-55.296 15.36-14.336 33.792-22.592 56.32-22.592s40.96 7.168 56.32 21.504c15.36 14.4 23.552 33.792 23.552 56.384 0 22.528-8.192 40.96-22.528 55.232-15.36 14.336-34.816 21.504-57.344 21.504z" />
<glyph unicode="&#xe956;" glyph-name="quit" d="M384 64h384v768h-512l256-256v-512h-128zM128 960h768v-1024h-768v1024zM256 384v-128h128v128h-128z" />
<glyph unicode="&#xe957;" glyph-name="radius_checked" d="M512-64c-282.752 0-512 229.248-512 512s229.248 512 512 512c282.752 0 512-229.248 512-512s-229.248-512-512-512zM512 320c70.656 0 128 57.344 128 128s-57.344 128-128 128-128-57.344-128-128 57.344-128 128-128z" />
<glyph unicode="&#xe958;" glyph-name="radius" d="M512-64c-282.752 0-512 229.248-512 512s229.248 512 512 512c282.752 0 512-229.248 512-512s-229.248-512-512-512zM512 64c212.032 0 384 171.968 384 384s-171.968 384-384 384-384-171.968-384-384 171.968-384 384-384z" />
<glyph unicode="&#xe959;" glyph-name="re_arrange_handle" d="M768 896h128v-896h-128v896zM448 896h128v-896h-128v896zM128 896h128v-896h-128v896z" />
<glyph unicode="&#xe95a;" glyph-name="receipt" d="M646.4 64c-4.16 20.672-6.4 42.112-6.4 64 0 176.768 143.232 320 320 320 21.888 0 43.328-2.176 64-6.4v-377.6h-377.6zM1024 506.688c-20.8 3.52-42.176 5.312-64 5.312-212.032 0-384-171.968-384-384 0-20.992 1.664-41.6 4.928-61.696h-580.928v765.696h1024v-325.312zM128 704v-128h640v128h-640zM128 448v-128h320v128h-320z" />
<glyph unicode="&#xe95b;" glyph-name="reply" d="M0 576l320 320 96-96-160-160.064h448c0 0 320 0 320-319.936v-320h-128v320c0 192-192 192-192 192h-447.744l159.744-160-96-96-320 320z" />
<glyph unicode="&#xe95c;" glyph-name="report_to" d="M735.936 320h160.192c70.592 0 127.872-56.832 127.872-128v-128h-512v128h-256v128h479.936zM768 448c-105.984 0-192 85.952-192 192s86.016 192 192 192 192-85.952 192-192-86.016-192-192-192zM256 448v-384l-256 192 256 192z" />
<glyph unicode="&#xe95d;" glyph-name="report_tome" d="M256 448c-106.048 0-192 85.952-192 192s85.952 192 192 192 192-85.952 192-192-85.952-192-192-192zM0 192c0 70.656 57.6 128 128.064 128h63.936l320-256h-512v128zM1024 320v-128h-384v128h384zM640 448v-384l-256 192 256 192z" />
<glyph unicode="&#xe95e;" glyph-name="requirement_list" d="M64 192h896v-128h-896v128zM576 448h384v-128h-384v128zM768 704h192v-128h-192v128zM64 512l96 96 96-96.192 320 320.192 96-96-416-416-192 192z" />
<glyph unicode="&#xe95f;" glyph-name="resend" d="M896 448h128l-192-256-192 256h127.744c-0.192 141.248-114.752 255.744-256 255.744v128.256c0.064 0 0.192 0 0.256 0 212.032 0 384-171.968 384-384zM511.744 64c-211.84 0.128-383.616 171.904-383.744 383.744h127.744c0-141.376 114.624-256 256-256v-127.744zM192 704l192-256h-384l192 256z" />
<glyph unicode="&#xe960;" glyph-name="right_triangle" d="M768 448l-384-256v512z" />
<glyph unicode="&#xe961;" glyph-name="scan" d="M0 959.936h320.128l-0.128-127.872-192-0.128v-192h-128v320zM0-64.064v320h128v-192l192-0.192 0.128-127.808h-320.128zM1024.064 960v-320.128l-127.808 0.128-0.192 192h-192v128h320zM0 511.936h1024v-128h-1024v128zM1024.064-64.128h-320v128h192l0.192 192 127.808 0.128v-320.128z" />
<glyph unicode="&#xe962;" glyph-name="schedule" d="M448 384v-64h384v128h-256v384h-128v-448zM512-64c-282.752 0-512 229.248-512 512s229.248 512 512 512c282.752 0 512-229.248 512-512s-229.248-512-512-512z" />
<glyph unicode="&#xe963;" glyph-name="search" d="M697.024 353.472l241.024-241.024-90.496-90.496-241.024 241.024c-62.784-44.736-139.584-70.976-222.528-70.976-212.032 0-384 171.968-384 384s171.968 384 384 384 384-171.968 384-384c0-82.944-26.24-159.744-70.976-222.528zM384 320c141.376 0 256 114.624 256 256s-114.624 256-256 256-256-114.624-256-256 114.624-256 256-256z" />
<glyph unicode="&#xe964;" glyph-name="selected" d="M0 832.384c0 70.464 57.28 127.616 127.616 127.616h768.768c70.464 0 127.616-57.28 127.616-127.616v-768.768c0-70.464-57.28-127.616-127.616-127.616h-768.768c-70.464 0-127.616 57.28-127.616 127.616v768.768zM192 421.76l256-256 448 448-90.24 90.24-357.824-357.12-165.696 165.12-90.24-90.24z" />
<glyph unicode="&#xe965;" glyph-name="selected_partial@2x" d="M0 832.384c0 70.464 57.28 127.616 127.616 127.616h768.768c70.464 0 127.616-57.28 127.616-127.616v-768.768c0-70.464-57.28-127.616-127.616-127.616h-768.768c-70.464 0-127.616 57.28-127.616 127.616v768.768zM192 512v-128h640v128h-640z" />
<glyph unicode="&#xe966;" glyph-name="selected_yet" d="M0 832.384c0 70.464 57.28 127.616 127.616 127.616h768.768c70.464 0 127.616-57.28 127.616-127.616v-768.768c0-70.464-57.28-127.616-127.616-127.616h-768.768c-70.464 0-127.616 57.28-127.616 127.616v768.768zM128 832v-768h768v768h-768z" />
<glyph unicode="&#xe967;" glyph-name="send" d="M64 512v384l896-448-896-448v384l576 64z" />
<glyph unicode="&#xe968;" glyph-name="seperate" d="M576 704h448v-512h-448v-128h-128v128h-448v512h448v128h128v-128zM576 704v-512h64v128h256v256h-256v128h-64z" />
<glyph unicode="&#xe969;" glyph-name="setting" d="M884.992 518.208c4.224-22.72 6.4-46.208 6.4-70.208s-2.112-47.424-6.4-70.208l129.792-74.944-128-221.76-129.856 75.008c-35.52-30.4-76.544-54.4-121.536-70.272v-149.824h-256v149.888c-44.928 15.872-86.016 39.872-121.536 70.272l-129.856-75.008-128 221.76 129.792 74.944c-4.224 22.72-6.4 46.144-6.4 70.144s2.176 47.424 6.4 70.208l-129.792 74.944 128 221.696 129.856-74.944c35.52 30.4 76.608 54.4 121.536 70.272v149.824h256v-149.824c44.992-15.936 86.080-39.936 121.536-70.272l129.856 74.944 128-221.696-129.792-74.944zM507.392 256c106.048 0 192 86.016 192 192 0 106.048-85.952 192-192 192s-192-85.952-192-192c0-105.984 85.952-192 192-192z" />
<glyph unicode="&#xe96a;" glyph-name="smile" d="M320 320c0-105.984 85.952-192 192-192 105.984 0 192 86.016 192 192h-384zM512-64c-282.752 0-512 229.248-512 512s229.248 512 512 512c282.752 0 512-229.248 512-512s-229.248-512-512-512zM288 512c53.056 0 96 42.944 96 96s-42.944 96-96 96-96-42.944-96-96 42.944-96 96-96zM736 512c52.992 0 96 42.944 96 96s-43.008 96-96 96-96-42.944-96-96 43.008-96 96-96z" />
<glyph unicode="&#xe96b;" glyph-name="sms" d="M64 896h896v-640h-632.256l-263.744-267.008z" />
<glyph unicode="&#xe96c;" glyph-name="staff_list" d="M256 448c-106.048 0-192 85.952-192 192s85.952 192 192 192 192-85.952 192-192-85.952-192-192-192zM0 192c0 70.656 56.768 128 127.872 128h256.256c70.592 0 127.872-56.832 127.872-128v-128h-512v128zM512 768h512v-128h-512v128zM512 512h512v-128h-512v128zM640 256h384v-128h-384v128z" />
<glyph unicode="&#xe96d;" glyph-name="superman" d="M768 320l256 320-256 256h-512l-256-256 256-320v64h384v64h-384v320h512v-128h-384v-64h384v-256zM716.544 255.68l-204.544-255.68-204.544 255.68h409.088z" />
<glyph unicode="&#xe96e;" glyph-name="transfer" d="M288 384h736v-128h-640v-192l-384 320h288zM640 640h-640v-128h1024l-384 320v-192z" />
<glyph unicode="&#xe96f;" glyph-name="triangle_down" d="M512 192l-320 384h640z" />
<glyph unicode="&#xe970;" glyph-name="ultimate_delete" d="M512 538.496l-135.744 135.808-90.56-90.56 135.808-135.744-135.808-135.744 90.56-90.496 135.744 135.744 135.744-135.744 90.496 90.496-135.744 135.744 135.744 135.744-90.496 90.56-135.744-135.808zM128 960h480.384l287.616-261.44v-762.56h-768v1024z" />
<glyph unicode="&#xe971;" glyph-name="unlock" d="M198.464 704c29.696 146.048 159.040 256 313.536 256 176.768 0 320-142.656 320-320.128v-127.744c0 0 0-0.064 0-0.128h128v-576h-896v576h640v128.192c0 105.536-86.016 191.808-192 191.808-83.456 0-154.688-53.44-181.12-128h-132.416z" />
<glyph unicode="&#xe972;" glyph-name="upload" d="M576 512v-256h-128v256h-256l320 384 320-384h-256zM832 0h-640v128h640v-128z" />
<glyph unicode="&#xe973;" glyph-name="angle_up" d="M64 320l90.24-90.24 357.696 357.12 357.824-357.12 90.24 90.24-448 448z" />
<glyph unicode="&#xe974;" glyph-name="user" d="M512 448c-141.376 0-256 114.624-256 256s114.624 256 256 256 256-114.624 256-256-114.624-256-256-256zM128 192.128c0 70.592 57.728 127.872 128.576 127.872h510.848c71.040 0 128.576-57.472 128.576-127.872v-256.128h-768v256.128z" />
<glyph unicode="&#xe975;" glyph-name="user_add" d="M704 320h-192v-128h192v-192h128v192h192v128h-192v192h-128v-192zM256 384c-141.376 0-256 114.624-256 256s114.624 256 256 256 256-114.624 256-256-114.624-256-256-256zM0 128c0 70.656 56.768 128 128.384 128h319.616v-128h64v-128h-512v128z" />
<glyph unicode="&#xe976;" glyph-name="user_confirm" d="M512 256l96 96 96-96 224 224 96-96-320-320-192 192zM320 384c-141.376 0-256 114.624-256 256s114.624 256 256 256 256-114.624 256-256-114.624-256-256-256zM64 128c0 70.656 57.216 128 128.32 128h191.68l256-256h-576v128z" />
<glyph unicode="&#xe977;" glyph-name="vication" d="M576 64v256l448 448h-1024l448-448v-256h-192v-128h512v128h-192zM768 960h128v-128h-128v128z" />
<glyph unicode="&#xe978;" glyph-name="web" d="M128.704 490.88c-76.032-35.712-128.704-113.152-128.704-202.88 0-123.52 100.032-224 223.488-224h577.024c123.456 0 223.488 100.224 223.488 224 0 123.52-99.968 224-223.488 224h-32.512c0 176.704-143.232 320-320 320-176.704 0-320-143.296-320-320 0-7.104 0.192-14.144 0.704-21.12z" />
<glyph unicode="&#xe979;" glyph-name="we_chat" d="M512 64c-64.96 0-126.656 11.904-182.4 33.152 0 0-66.176-31.36-198.592-94.144 40.512 117.632 60.8 176.384 60.8 176.384-79.040 69.248-127.808 164.032-127.808 268.608 0 212.032 200.576 384 448 384s448-171.968 448-384-200.576-384-448-384zM320 448c35.328 0 64 28.672 64 64s-28.672 64-64 64-64-28.672-64-64 28.672-64 64-64zM704 448c35.392 0 64 28.672 64 64s-28.608 64-64 64-64-28.672-64-64 28.608-64 64-64z" />
<glyph unicode="&#xe97a;" glyph-name="withdraw" d="M0 576l320 320 96-96-160-160.064h448c0 0 320 0 320-319.936 0 0 0-320-320-320h-576v128h576c192 0 192 192 192 192 0 192-192 192-192 192h-447.744l159.744-160-96-96-320 320z" />
<glyph unicode="&#xe97b;" glyph-name="withdraw_batch" d="M320 576l320 320 96-96-160-160.064h128c0 0 320 0 320-319.936 0 0 0-320-320-320h-576v128h576c192 0 192 192 192 192 0 192-192 192-192 192h-127.744l159.744-160-96-96-320 320zM0 576l320 320 96-96-224-224 224-224-96-96-320 320z" />
<glyph unicode="&#xe97c;" glyph-name="zoom_in" d="M922.496 128h37.504v256h-128v-165.504l-154.496 154.496-90.496-90.496 154.496-154.496h-165.504v-128h384v128h-37.504zM101.504 768h-37.504v-256h128v165.504l154.496-154.56 90.56 90.56-154.56 154.496h165.504v128h-384v-128h37.504z" />
<glyph unicode="&#xe97d;" glyph-name="zoom_out" d="M613.504 256h-37.504v-256h128v165.504l154.496-154.496 90.496 90.496-154.496 154.496h165.504v128h-384v-128h37.504zM410.496 640h37.504v256h-128v-165.504l-154.496 154.56-90.56-90.56 154.56-154.496h-165.504v-128h384v128h-37.504z" />
<glyph unicode="&#xe97e;" glyph-name="home" d="M1024 369.556l-512 397.426-512-397.428v162.038l512 397.426 512-397.428zM896 384v-384h-256v256h-256v-256h-256v384l384 288z" />
<glyph unicode="&#xe97f;" glyph-name="forbid" d="M274.368 146.368c65.344-51.648 147.904-82.368 237.632-82.368 212.032 0 384 171.968 384 384 0 89.728-30.72 172.288-82.368 237.632l-539.264-539.264zM184.064 248.128l527.808 527.808c-58.176 35.584-126.592 56.064-199.872 56.064-212.032 0-384-171.968-384-384 0-73.28 20.48-141.696 56.064-199.872zM512-64c-282.752 0-512 229.248-512 512s229.248 512 512 512c282.752 0 512-229.248 512-512s-229.248-512-512-512z" />
<glyph unicode="&#xe980;" glyph-name="triangle_up" d="M512 640l-320-384h640z" />
<glyph unicode="&#xe981;" glyph-name="calculator" d="M128 960h768v-1024h-768v1024zM256 832v-192h512v192h-512zM256 576v-128h128v128h-128zM448 576v-128h128v128h-128zM640 576v-128h128v128h-128zM256 192v-128h128v128h-128zM448 192v-128h128v128h-128zM640 384v-320h128v320h-128zM256 384v-128h128v128h-128zM448 384v-128h128v128h-128z" />
<glyph unicode="&#xe982;" glyph-name="star" d="M512 143.36l-198.592-126.336c-69.952-44.48-111.872-14.784-93.632 65.984l54.4 241.088-176.96 159.424c-61.632 55.488-44.608 106.24 37.312 113.344l230.528 19.904 91.392 228.544c30.656 76.736 80.512 76.608 111.104 0l91.456-228.544 230.528-19.904c82.176-7.104 98.624-58.112 37.248-113.344l-176.96-159.424 54.464-241.088c18.24-80.96-23.616-110.592-93.632-65.984l-198.656 126.336z" />
</font>
</defs>
</svg>
